<svg xmlns="http://www.w3.org/2000/svg" viewBox="0 0 282.54 282.54"><defs><style>.cls-1{fill:#93c83e;}.cls-2{fill:#fff;}</style></defs><title>Asset 2</title><g id="Layer_2" data-name="Layer 2"><g id="Layer_1-2" data-name="Layer 1"><path class="cls-1" d="M25.34,143.73,37,155.42a69.75,69.75,0,0,1,3.13-6.69l-7.46-7.46,85.43-85.43a67.38,67.38,0,0,1,2.43-11c.21-.64.44-1.27.68-1.89l-95.9,95.91A3.46,3.46,0,0,0,25.34,143.73Z"/><path class="cls-1" d="M167,59.13a16.06,16.06,0,0,0,2.37,3.93l78.2,78.21-31.77,31.78c.05.32.11.64.16,1h0q.63,4.1,1,7.74l38-38a3.46,3.46,0,0,0,0-4.91l-88-88C166.2,54.37,166.21,57.16,167,59.13Z"/><path class="cls-1" d="M63.47,172l-.26.35c-1.44,1.93-2.74,3.68-4,5.27l29.28,29.27a93.35,93.35,0,0,1-3.38-13.2Z"/><path class="cls-1" d="M161.53,227.26c-.05.77-.1,1.53-.16,2.3.23,2.57.32,4.68.32,6.42l.67.29,27.73-27.74c-.49-2.24-1.12-5-1.82-8Z"/><path class="cls-1" d="M48.49,191.05c.24-.14.48-.28.72-.44a21.93,21.93,0,0,0,4-3.62l41.1,41.09-.43,3.64c-1.22.4-2.36.83-3.45,1.29Z"/><path class="cls-1" d="M215.76,209.35a49.35,49.35,0,0,0,2.35-11.16L275,141.27l-102-102a29.85,29.85,0,0,1,3.59-4.75l.25-.23L281.63,139.07a3.11,3.11,0,0,1,0,4.4Z"/><path class="cls-1" d="M175.42,249.68a12.85,12.85,0,0,0-1.77-5.78c-.15-.26-.31-.51-.48-.77l21.47-21.47a9.85,9.85,0,0,0,6.13,2.15h.54Z"/><path class="cls-1" d="M141.27,282.54a3.09,3.09,0,0,1-2.2-.91l-22.86-22.86H125L141.27,275l16.26-16.25h8.81l-22.87,22.86A3.07,3.07,0,0,1,141.27,282.54Z"/><path class="cls-1" d="M.91,143.47a3.11,3.11,0,0,1,0-4.4L139.07.91a3.11,3.11,0,0,1,4.4,0L158.59,16A47.82,47.82,0,0,0,153,19.22l-11.7-11.7L7.52,141.27,33,166.72a63.69,63.69,0,0,0-.4,8.4Z"/><path class="cls-2" d="M156.31,33.36c2,.56,3,3.37,2.23,6.28s-3.08,4.81-5.11,4.26-3-3.37-2.23-6.28S154.29,32.81,156.31,33.36Z"/><path class="cls-2" d="M122.06,243.46c0,.21-.09.34-.09.34S122.19,243.64,122.06,243.46Z"/><path class="cls-2" d="M210.56,174.82c-3.89-25-16.76-42.95-22.3-53.87-4.5-8.88-8.63-21-10-25.26A49.77,49.77,0,0,0,171.69,75a46.22,46.22,0,0,0-4.41-5.9c-2.2-2.65-4.28-5.14-5.4-8.11s-1.2-6.73-.21-11.41a38.52,38.52,0,0,1,4.43-11.38,38.28,38.28,0,0,1,7.11-9.43,33.61,33.61,0,0,1,12.21-7.1c2-.74,3.76-1.38,3.36-3.22h0A2.18,2.18,0,0,0,187.56,17c-2.55-1.29-13.57-.88-23.93,3.68a43.59,43.59,0,0,0-11.58,7.12c-2.21.17-5.1.49-8.56,1.1-8.34,1.46-15.38,9-18.18,17.58S123,63.79,120,68.58s-9.13,10.77-16.91,20.79-18.85,17.51-32,28.73S41.47,151,39.38,165.24s.89,23.49,6.13,20,18.26-24.24,31.28-38.61S97,130.22,97,130.22l4.93-12.12s-2.84,12-5.83,21.25-8.83,31.13-6.89,47.59,7.64,27.68,10,31.57c1,1.54,1.4,4.3,1.61,7.07q-.65,5.49-1.3,11a53.44,53.44,0,0,0-8.09,2.88c-5.24,2.54-6.14,4.79-6.14,4.79s8.38-.3,10-.45,4.64-3.44,5.09-3.44-2.1,3.44-2.1,3.44,15-.6,19.9-.75c2.85-.09,3.66.17,3.83.41a8.6,8.6,0,0,0,.21-3.25,0,0,0,0,0,0,0,13.71,13.71,0,0,0,2.13.36,12.16,12.16,0,0,0,1.34.07,13.33,13.33,0,0,0,1.56-.1,48.65,48.65,0,0,0-3.67,4,36,36,0,0,0,7,.74c3.74,0,8.23-2.09,8.23-2.09l-.89,2.09a41.57,41.57,0,0,1,8.23-1.49c4.34-.3,8.23-.45,9.42-2.4s.3-11.82.3-11.82c.57-7,.72-12.63.75-16.61l-.15-15.11h0l0,.08c5.44-16,10.34-33.2,15-52.61a55.08,55.08,0,0,1,5.42,7.79c3,5.09,6,11.37,9.73,22.29s7.78,29.18,9.27,36.22,5.69,7.18,9.43,3.14S214.45,199.8,210.56,174.82Zm-40.5-38.7-.09.38c-7.29,31.89-15.13,57.86-24.67,81.73-.14.36-.3.82-.49,1.36-1,2.79-2.76,8-7.34,12-1.69,1.49-6.82,6-12.76,5.46a10.28,10.28,0,0,1-1.54-.27,12.7,12.7,0,0,1-4.52-2.33l-1.21-.93c-2.33-1.83-5-3.89-9.06-4h-.33a13.79,13.79,0,0,0-5.1,1c.49-1.47,1-3.13,1.47-4.91.43-1.51.83-3,1.17-3.82,1.34-3.44,2.74-6.93,4.09-10.31l2.14-5.35c10.05-25.32,21.45-54,25-84.31,1.09-9.26,1.41-18.75,1.71-27.92.51-15.1,1-30.72,5-45.51a37,37,0,0,1,6.85-14.06,34.42,34.42,0,0,1,7.66-6.87A42.83,42.83,0,0,1,164.64,24l.39-.17a48.74,48.74,0,0,1,15.46-3.94,34.51,34.51,0,0,0-9.65,6.35,41.08,41.08,0,0,0-7.65,10.06l-.11.2c-.45.79-.91,1.64-1.37,2.56a39.27,39.27,0,0,0-3.44,9.8c-1.13,5.35-1,9.72.36,13.36s3.69,6.35,6,9.1a44.46,44.46,0,0,1,4.1,5.46,46.4,46.4,0,0,1,6.09,19.36C176.15,109.48,173.05,123,170.06,136.12Z"/><path class="cls-2" d="M135.94,83.35,134,80.47c9.23-6.19,16-13.56,20.25-21.92a61,61,0,0,0,4.24-11.47c1.36-4.72,2.65-9.17,6.33-14.25,4.87-6.7,12-11.77,21.08-15.08L187.09,21c-8.45,3.07-15,7.74-19.45,13.86-3.33,4.59-4.47,8.57-5.8,13.17a66.32,66.32,0,0,1-4.47,12.07C152.88,69,145.67,76.83,135.94,83.35Z"/><path class="cls-2" d="M150.58,238c.28-.31.56-.63.83-.95H130.87a15.07,15.07,0,0,1-13.19,0H97.16c.27.32.55.64.83.95-10.84,2.38-20.13,7.41-18,14.37h88.55C170.72,245.44,161.43,240.41,150.58,238Z"/></g></g></svg>